<?xml version="1.0" encoding="utf-8"?>
<!-- Generator: Adobe Illustrator 28.0.0, SVG Export Plug-In . SVG Version: 6.00 Build 0)  -->
<svg version="1.1" id="Layer_2_00000000185898343990691160000001866662199301683370_"
	 xmlns="http://www.w3.org/2000/svg" xmlns:xlink="http://www.w3.org/1999/xlink" x="0px" y="0px" viewBox="0 0 2290.7 1196.9"
	 style="enable-background:new 0 0 2290.7 1196.9;" xml:space="preserve">
<style type="text/css">
	.st0{fill:none;}
	.st1{fill:none;stroke:#929292;stroke-width:4.2;stroke-linecap:round;stroke-miterlimit:10;}
	.st2{fill:none;stroke:#9D9D9D;stroke-width:4.2;stroke-linecap:round;stroke-miterlimit:10;}
	.st3{fill:none;stroke:#E5E5E5;stroke-width:4.2;stroke-linecap:round;stroke-miterlimit:10;}
	.st4{fill:none;stroke:#C7C7C7;stroke-width:4.2;stroke-linecap:round;stroke-miterlimit:10;}
	.st5{fill:url(#SVGID_1_);}
</style>
<pattern  x="-1397.1" y="1924" width="308.4" height="312.3" patternUnits="userSpaceOnUse" id="New_Pattern_Swatch_1" viewBox="0 -312.3 308.4 312.3" style="overflow:visible;">
	<g>
		<rect x="0" y="-312.3" class="st0" width="308.4" height="312.3"/>
		<g>
			<rect x="0" y="-312.3" class="st0" width="308.4" height="312.3"/>
			<g>
				<rect x="0" y="-312.3" class="st0" width="308.4" height="312.3"/>
				<g>
					<rect x="0" y="-312.3" class="st0" width="308.4" height="312.3"/>
					<g>
						<line class="st1" x1="112.1" y1="-33.2" x2="112.1" y2="-38.8"/>
						<path class="st1" d="M104-30.7v24.3l27.5-2c5.1-0.4,9-4.6,9-9.7v-15.1h2.6c2.4,0,4.3-1.9,4.3-4.3v-6.9c0-2.3-1.9-4.3-4.3-4.3
							h-2.6v-1c0-10.4-8.4-18.8-18.8-18.8H104v16.4l-8.4,1.3l6.7,12.7"/>
						<circle class="st1" cx="112.9" cy="-36.7" r="10.7"/>
						<line class="st1" x1="104" y1="-13.6" x2="117.9" y2="-14.7"/>
					</g>
					<g>
						<line class="st2" x1="276.4" y1="-210.1" x2="276.4" y2="-215.2"/>
						<path class="st2" d="M285.3-214.6l6-11.6l-7.6-1.2v-14.8h-16c-9.4,0-17.1,7.7-17.1,17.1v0.9h-2.4c-2.1,0-3.9,1.7-3.9,3.9v6.3
							c0,2.1,1.7,3.9,3.9,3.9h2.4v13.7c0,4.6,3.5,8.4,8.1,8.8l24.9,1.8v-22"/>
						
							<ellipse transform="matrix(5.759592e-03 -1 1 5.759592e-03 487.3158 63.5847)" class="st2" cx="275.6" cy="-213.3" rx="9.7" ry="9.7"/>
						<line class="st2" x1="283.7" y1="-192.3" x2="271.1" y2="-193.4"/>
					</g>
					<g>
						<line class="st2" x1="126.1" y1="-254.6" x2="126.1" y2="-260.2"/>
						<path class="st2" d="M118.1-256.2v12.2c0,8.5,7.2,15.3,15.8,14.6l11.4-0.8c5-0.4,8.9-4.5,8.9-9.5v-14.9h2.6
							c2.3,0,4.2-1.9,4.2-4.2v-6.8c0-2.3-1.9-4.2-4.2-4.2h-2.6v-1c0-10.3-8.3-18.6-18.6-18.6h-17.4v16.2l-8.3,1.3L118.1-256.2
							L118.1-256.2L118.1-256.2z"/>
						<line class="st2" x1="133.9" y1="-229.4" x2="116.6" y2="-229"/>
						<line class="st2" x1="120.8" y1="-235.5" x2="111.2" y2="-234.4"/>
					</g>
					<g>
						<line class="st3" x1="22.9" y1="-34.9" x2="22.9" y2="-40"/>
						<path class="st3" d="M48.6-21.2v-13.7H51c2.1,0,3.9-1.7,3.9-3.9v-6.3c0-2.1-1.7-3.9-3.9-3.9h-2.4v-0.9
							c0-9.4-7.7-17.1-17.1-17.1h-16v14.8l-7.6,1.2l7.6,14.5v11.3l-8,13.9l32.4-2.5C44.2-14,47.7-17.1,48.6-21.2L48.6-21.2
							L48.6-21.2z"/>
						<line class="st3" x1="15.5" y1="-25.1" x2="26" y2="-25.1"/>
					</g>
					<g>
						<line class="st3" x1="183.9" y1="-161.4" x2="183.9" y2="-166.5"/>
						<path class="st3" d="M158.1-147.7v-13.7h-2.4c-2.1,0-3.9-1.7-3.9-3.9v-6.3c0-2.1,1.7-3.9,3.9-3.9h2.4v-0.9
							c0-9.4,7.6-17.1,17.1-17.1h16v14.8l7.6,1.2l-7.6,14.5v11.3l8,13.9l-32.4-2.5C162.6-140.5,159-143.6,158.1-147.7L158.1-147.7
							L158.1-147.7z"/>
						<line class="st3" x1="191.2" y1="-151.6" x2="180.8" y2="-151.6"/>
					</g>
					<g>
						<line class="st2" x1="63.2" y1="-117.4" x2="63.2" y2="-122.5"/>
						<path class="st2" d="M37.4-117.4H35c-2.1,0-3.9-1.7-3.9-3.9v-6.3c0-2.1,1.7-3.9,3.9-3.9h2.4v-0.9c0-9.4,7.7-17.1,17.1-17.1h16
							v14.8l7.6,1.2l-7.6,14.5v11.3"/>
						<line class="st2" x1="70.5" y1="-107.6" x2="60" y2="-107.6"/>
						<path class="st2" d="M76.2-129.8c3.1,5,4.8,10.9,4.8,17.1c0,18.1-14.7,32.8-32.8,32.8s-32.8-14.7-32.8-32.8
							c0-16.3,11.9-29.9,27.5-32.3"/>
					</g>
					<g>
						<line class="st4" x1="199.2" y1="-258.8" x2="199.2" y2="-263.9"/>
						<path class="st4" d="M224.9-258.8h2.4c2.1,0,3.9-1.7,3.9-3.9v-6.3c0-2.1-1.7-3.9-3.9-3.9h-2.4v-0.9c0-9.4-7.6-17.1-17.1-17.1
							h-16v14.8l-7.6,1.2l7.6,14.5v11.3"/>
						<path class="st4" d="M189.2-243c0,0-7.7,11.1-11.7,16.8"/>
						<line class="st4" x1="200.1" y1="-240.2" x2="199.2" y2="-218.4"/>
						<line class="st4" x1="212.1" y1="-243" x2="220.7" y2="-221.1"/>
						<line class="st4" x1="223.3" y1="-247.1" x2="234" y2="-235"/>
						<line class="st4" x1="232.6" y1="-254.8" x2="244.6" y2="-251.7"/>
						<line class="st4" x1="237.9" y1="-268.8" x2="244.9" y2="-268.8"/>
					</g>
					<g>
						<line class="st1" x1="204.8" y1="-67.2" x2="204.8" y2="-72.3"/>
						<path class="st1" d="M190.3-94.7c0.6-0.1,5.3-0.1,5.9-0.1h11.9c2.2,0,4.1,1.8,4.1,4.1V-80l6.2,0l-6.2,15.7v4.1"/>
						<path class="st1" d="M218.4-60.1h-22.5v-34.7h-26.2v38.7c0,9,7.3,16.3,16.3,16.3h19.6c7.1,0,12.8-5.7,12.8-12.8L218.4-60.1
							L218.4-60.1L218.4-60.1z"/>
					</g>
					<g>
						<line class="st1" x1="55.9" y1="-262.6" x2="55.9" y2="-267.7"/>
						<path class="st1" d="M41.4-290.1c0.6-0.1,5.3-0.1,5.9-0.1h11.9c2.2,0,4,1.8,4,4v10.8l6.2,0l-6.2,15.7v4.1"/>
						<path class="st1" d="M20.7-251.4c0,9,7.3,16.3,16.3,16.3h19.6c7.1,0,12.8-5.7,12.8-12.8v-7.5H9.5"/>
						<line class="st1" x1="20.7" y1="-251.4" x2="20.7" y2="-290.3"/>
						<line class="st1" x1="63.4" y1="-249.6" x2="68.3" y2="-249.6"/>
					</g>
					<g>
						<line class="st4" x1="273.9" y1="-39.8" x2="273.9" y2="-44.8"/>
						<path class="st4" d="M245.7-36.5v6.9c0,8.2,6.7,14.9,14.9,14.9h19c2.8,0,5-2.3,5-5v-2l-3.5-7v-7.9l6.2-15.7l-6.2,0v-10.8
							c0-2.2-1.8-4.1-4-4.1h-11.9"/>
						<line class="st4" x1="245.7" y1="-50.6" x2="245.7" y2="-67.6"/>
						<path class="st4" d="M261.8-14.8c-1.7,4.4-5.9,7.5-10.9,7.5c-6.4,0-11.7-5.2-11.7-11.7c0-4.6,2.7-8.6,6.5-10.5"/>
						<path class="st4" d="M245.7-36.5h-2.4c-2.1,0-3.9-1.7-3.9-3.9v-6.3c0-2.1,1.7-3.9,3.9-3.9h2.4"/>
						<line class="st4" x1="281.2" y1="-28.8" x2="260.4" y2="-28.8"/>
					</g>
					<g>
						<line class="st1" x1="225.3" y1="-131.8" x2="225.3" y2="-137.4"/>
						<path class="st1" d="M265.2-104.2h-46.3c-3.1,0-5.6-2.5-5.6-5.6v-2.2l3.8-7.7v-8.8l-6.8-17.4l6.8,0v-11.9c0-2.5,2-4.5,4.5-4.5
							h13.2"/>
						<path class="st1" d="M274.9-115.7c0-4.6-4.8-4.6-4.8-9.1c0-4.5,4.8-4.6,4.8-9.1s-4.8-4.6-4.8-9.1s4.8-4.6,4.8-9.1
							s-4.8-4.6-4.8-9.1"/>
						<path class="st1" d="M247.1-111c0-5-5.3-5-5.3-10s5.3-5,5.3-10c0-5-5.3-5-5.3-10s5.3-5,5.3-10s-5.3-5-5.3-10"/>
						<path class="st1" d="M261.6-111c0-5-5.3-5-5.3-10s5.3-5,5.3-10c0-5-5.3-5-5.3-10s5.3-5,5.3-10s-5.3-5-5.3-10"/>
					</g>
					<g>
						<line class="st3" x1="55.9" y1="-193.2" x2="55.9" y2="-198.8"/>
						<path class="st3" d="M16-165.6h46.3c3.1,0,5.6-2.5,5.6-5.6v-2.2l-3.8-7.7v-8.8l6.8-17.4l-6.8,0v-11.9c0-2.5-2-4.5-4.5-4.5
							H46.3"/>
						<path class="st3" d="M6.3-177.1c0-4.6,4.8-4.6,4.8-9.1s-4.8-4.6-4.8-9.1s4.8-4.6,4.8-9.1s-4.8-4.6-4.8-9.1s4.8-4.6,4.8-9.1"/>
						<path class="st3" d="M34.1-172.4c0-5,5.3-5,5.3-10s-5.3-5-5.3-10s5.3-5,5.3-10s-5.3-5-5.3-10s5.3-5,5.3-10"/>
						<path class="st3" d="M19.6-172.4c0-5,5.3-5,5.3-10s-5.3-5-5.3-10s5.3-5,5.3-10s-5.3-5-5.3-10s5.3-5,5.3-10"/>
					</g>
					<g>
						<line class="st4" x1="97" y1="-158.1" x2="97" y2="-163.2"/>
						<path class="st4" d="M89.7-146.1v-9l-6.2-15.7l6.2,0v-10.8c0-2.2,1.8-4.1,4.1-4.1h11.9c0.6,0,5.3,0,5.9,0.1"/>
						<path class="st4" d="M86.1-146.1h26.1v-39.6h26.2v43.6c0,9-7.3,16.3-16.3,16.3H98.9c-7.1,0-12.8-5.7-12.8-12.8L86.1-146.1
							L86.1-146.1L86.1-146.1z"/>
						<circle class="st4" cx="98.9" cy="-160.6" r="8.7"/>
						<line class="st4" x1="103.7" y1="-146.1" x2="103.7" y2="-136.7"/>
						<line class="st4" x1="95.1" y1="-146.1" x2="95.1" y2="-140.3"/>
					</g>
					<path class="st4" d="M209.7-189.4c0-1.9-1.6-3.5-3.5-3.5s-3.5,1.6-3.5,3.5s1.6,3.5,3.5,3.5S209.7-187.4,209.7-189.4z"/>
					<path class="st4" d="M242.1-86.1c0-1.9-1.6-3.5-3.5-3.5s-3.5,1.6-3.5,3.5s1.6,3.5,3.5,3.5S242.1-84.1,242.1-86.1z"/>
					<path class="st4" d="M37.6-305.2c0-1.9-1.6-3.5-3.5-3.5s-3.5,1.6-3.5,3.5s1.6,3.5,3.5,3.5S37.6-303.3,37.6-305.2z"/>
					<path class="st4" d="M297.2-254.6c0-1.9-1.6-3.5-3.5-3.5s-3.5,1.6-3.5,3.5s1.6,3.5,3.5,3.5S297.2-252.7,297.2-254.6z"/>
					<circle class="st4" cx="143.6" cy="-96.8" r="8.2"/>
					<circle class="st4" cx="169.7" cy="-28.7" r="5.9"/>
					<path class="st4" d="M2.1-146.5c0-2,1.7-3.7,3.7-3.7s3.7,1.6,3.7,3.7s-1.7,3.7-3.7,3.7S2.1-144.4,2.1-146.5z"/>
					<circle class="st4" cx="5.4" cy="-291.2" r="3.3"/>
					<path class="st3" d="M94.4-241.8c0-1.9-1.6-3.5-3.5-3.5s-3.5,1.6-3.5,3.5s1.6,3.5,3.5,3.5S94.4-239.9,94.4-241.8z"/>
					<circle class="st3" cx="72" cy="-32.9" r="6.1"/>
					<circle class="st3" cx="266.3" cy="-88.5" r="6"/>
					<circle class="st3" cx="287.5" cy="-166.1" r="6.3"/>
					<circle class="st3" cx="275.2" cy="-286.2" r="7.9"/>
					<circle class="st2" cx="242.6" cy="-294" r="6"/>
					<circle class="st2" cx="168.9" cy="-115.7" r="7.9"/>
					<circle class="st2" cx="291.3" cy="-131.9" r="7.9"/>
					<path class="st2" d="M89.4-209.4c0-3.2,2.6-5.8,5.8-5.8s5.8,2.6,5.8,5.8s-2.6,5.8-5.8,5.8S89.4-206.2,89.4-209.4z"/>
					<path class="st2" d="M95.2-291.5c0-2.9-2.4-5.3-5.3-5.3s-5.3,2.4-5.3,5.3s2.4,5.3,5.3,5.3S95.2-288.5,95.2-291.5z"/>
					<circle class="st2" cx="8" cy="-240.5" r="5.9"/>
					<path class="st2" d="M163.6-209.8c0-1.9-1.6-3.5-3.5-3.5s-3.5,1.6-3.5,3.5s1.6,3.5,3.5,3.5S163.6-207.9,163.6-209.8z"/>
					<circle class="st2" cx="196.5" cy="-15.7" r="6.2"/>
					<circle class="st4" cx="70.7" cy="-9.5" r="7.4"/>
					<path class="st2" d="M70.5-67.1c0-2.9-2.3-5.2-5.2-5.2c-2.9,0-5.2,2.3-5.2,5.2s2.3,5.2,5.2,5.2C68.1-61.9,70.5-64.2,70.5-67.1z
						"/>
					<circle class="st1" cx="101.7" cy="-88.6" r="6.1"/>
					<circle class="st1" cx="162.8" cy="-304.1" r="6.1"/>
					<circle class="st1" cx="233.3" cy="-181.7" r="4.6"/>
					<circle class="st1" cx="171" cy="-249" r="4.6"/>
					<circle class="st1" cx="124.5" cy="-208.4" r="6.8"/>
					<circle class="st1" cx="298.8" cy="-88.6" r="7.5"/>
				</g>
			</g>
		</g>
	</g>
</pattern>
<g id="Layer_2-2">
	<g id="Layer_1-2">
		<pattern  id="SVGID_1_" xlink:href="#New_Pattern_Swatch_1" patternTransform="matrix(1 0 0 -1 985.55 -38116.7383)">
		</pattern>
		<rect x="-0.7" y="0.9" class="st5" width="2292.1" height="1195.1"/>
	</g>
</g>
</svg>
